<svg id="Layer_1" data-name="Layer 1" xmlns="http://www.w3.org/2000/svg" xmlns:xlink="http://www.w3.org/1999/xlink" viewBox="0 0 800 800"><defs><style>.cls-1{fill:url(#linear-gradient);}.cls-2{fill:url(#linear-gradient-2);}.cls-3{fill:#fff;}</style><linearGradient id="linear-gradient" x1="33.92" y1="401.25" x2="776.96" y2="401.25" gradientUnits="userSpaceOnUse"><stop offset="0.01" stop-color="#fff"/><stop offset="0.39" stop-color="lime"/><stop offset="1" stop-color="#00bd00"/></linearGradient><linearGradient id="linear-gradient-2" x1="100.56" y1="381.6" x2="710.46" y2="381.6" xlink:href="#linear-gradient"/></defs><title>whatsapp-black-01-01</title><rect x="1" y="1" width="803" height="799"/><path class="cls-1" d="M57.48,796.51l19.45-77.33c9.78-38.85,19.68-77.68,29.14-116.61a15,15,0,0,0-2.21-10.91c-47.74-66.94-73.1-141.43-69.63-223.33,6.46-152.43,80.38-262.7,218.3-329.28,60-29,124.48-37.33,190.8-31.12C605,23.08,742.28,148.41,770.42,307.05c20,112.77-5.75,214.6-78.57,303.23-58,70.57-133.39,113.61-224,129.12q-100.71,17.24-196.27-19.59a20.38,20.38,0,0,0-16.12,0q-95.1,37.21-190.38,74C63.07,794.6,61,795.26,57.48,796.51Zm23.44-26.39c4.41-1.62,7.67-2.76,10.88-4,53.39-20.7,106.83-41.27,160.09-62.28,8.05-3.18,14.88-3.48,23-.13a325.66,325.66,0,0,0,84.51,21.81c88.19,10.87,169.8-7.56,243.52-56.59C737.83,579.23,794,413.45,741.19,260.35,678.48,78.44,480.52-21.33,293.27,40.42,153.16,86.62,58.71,210.16,50.55,356.68c-4.72,84.74,19.21,161.58,70.06,229.92,3.33,4.48,4.46,8.22,3,13.89C109.31,656.47,95.36,712.54,80.92,770.12Z"/><path class="cls-2" d="M145.49,689.56c10.24-35.94,19.89-70.34,30-104.62,1.57-5.34.72-8.82-2.8-13-51.1-60.63-75-130.74-71.82-209.57,5.64-139.22,109.77-257.94,247.81-283.47C513.88,48.34,671,153.86,704.55,318c27.93,136.44-45.37,278.39-173.37,334.4-88.52,38.73-176.53,36.47-263.65-5.34-3.25-1.56-8.38-1.25-11.9.09-34.6,13.16-69,26.72-103.53,40.15C150.39,687.93,148.64,688.47,145.49,689.56ZM310.57,212.82c-14.79-5.88-26.06,4.65-37.33,15-3,2.75-5.82,5.65-8.51,8.67-12.18,13.63-19.86,29.3-17.48,47.8,2.55,19.92,4.64,40.25,10.5,59.32,16.17,52.64,48.78,95,89.63,131.16,37.5,33.24,78.58,61,128,73.54,15.84,4,32.49,5.89,48.86,6.62,24.47,1.09,59.13-23.27,67.82-45.94a9.45,9.45,0,0,0,.55-3.91c-.7-10.74-1.3-21.5-2.42-32.19-.22-2.16-2.07-5.24-3.93-6q-41.09-16.12-82.42-31.64c-6.88-2.6-13.07-1.41-18.62,3.92-8.38,8-17.58,15.24-25.58,23.6-5.14,5.38-9.56,6.37-15.33,1.93-15.39-11.83-31.32-23-46.06-35.64-23.12-19.74-42.26-43.07-59.2-68.26-4.72-7-4.92-11.92,2-17.88,7.29-6.33,12.84-14.62,20-21.15,9.1-8.3,9.2-17,4.78-27.64-8.39-20.09-16.22-40.42-24-60.76C334.35,213.84,334.52,213.78,310.57,212.82Z"/><path d="M77.19,769.3c14.35-57.58,28.21-113.66,42.44-169.63,1.44-5.67.31-9.41-3-13.89C66.1,517.44,42.32,440.6,47,355.86,55.12,209.34,149,85.8,288.21,39.6,474.3-22.15,671,77.62,733.35,259.53,785.81,412.62,730,578.41,596,668.11c-73.27,49-154.36,67.46-242,56.59a321.65,321.65,0,0,1-84-21.82c-8.08-3.35-14.86-3-22.86.14-52.94,21-106,41.57-159.1,62.27C84.81,766.54,81.57,767.68,77.19,769.3Zm64.17-80.56c3.13-1.09,4.87-1.64,6.57-2.3,34.27-13.43,68.5-27,102.88-40.15,3.5-1.34,8.6-1.65,11.83-.09,86.57,41.81,174,44.07,262,5.33,127.21-56,200.05-198,172.3-334.39C663.56,153,507.45,47.52,343.25,78.08,206.07,103.62,102.59,222.33,97,361.55c-3.17,78.84,20.58,149,71.37,209.58,3.49,4.16,4.34,7.65,2.78,13C161.12,618.4,151.54,652.8,141.36,688.74Z"/><path class="cls-3" d="M305.41,212c23.8,1,23.63,1,31.06,20.62,7.71,20.34,15.49,40.67,23.82,60.76,4.4,10.59,4.3,19.33-4.74,27.64-7.11,6.52-12.61,14.82-19.86,21.15-6.83,6-6.63,10.86-1.94,17.88,16.84,25.18,35.86,48.52,58.83,68.26,14.65,12.59,30.48,23.81,45.78,35.64,5.74,4.44,10.13,3.44,15.23-1.93,8-8.36,17.1-15.58,25.42-23.61,5.52-5.33,11.67-6.52,18.51-3.91,27.36,10.4,54.68,20.88,81.91,31.64,1.85.73,3.67,3.81,3.9,6,1.11,10.7,1.71,21.45,2.41,32.19a9.82,9.82,0,0,1-.55,3.92c-8.64,22.67-43.08,47-67.4,45.94-16.27-.73-32.81-2.61-48.56-6.62C420.08,535,379.26,507.23,342,474c-40.59-36.21-73-78.52-89.07-131.16-5.82-19.07-7.9-39.41-10.44-59.32-2.36-18.5,5.27-34.17,17.37-47.8,2.68-3,5.5-5.93,8.46-8.67C279.51,216.65,290.71,206.12,305.41,212Z"/></svg>