<svg id="Layer_1" data-name="Layer 1" xmlns="http://www.w3.org/2000/svg" xmlns:xlink="http://www.w3.org/1999/xlink" viewBox="0 0 800 800"><defs><style>.cls-1{fill:url(#linear-gradient);}.cls-2{fill:url(#linear-gradient-2);}.cls-3{fill:#fff;}.cls-4{fill:url(#linear-gradient-3);}</style><linearGradient id="linear-gradient" x1="146.12" y1="395" x2="659.88" y2="395" gradientUnits="userSpaceOnUse"><stop offset="0.01" stop-color="#fff"/><stop offset="0.39" stop-color="lime"/><stop offset="1" stop-color="#00bd00"/></linearGradient><linearGradient id="linear-gradient-2" x1="192.2" y1="381.33" x2="613.9" y2="381.33" xlink:href="#linear-gradient"/><linearGradient id="linear-gradient-3" x1="15.44" y1="397.05" x2="773.65" y2="397.05" gradientUnits="userSpaceOnUse"><stop offset="0" stop-color="#008b00"/><stop offset="0.56" stop-color="lime"/><stop offset="1" stop-color="#fff"/></linearGradient></defs><title>whatsapp</title><path class="cls-1" d="M162.41,670l13.45-53.8c6.77-27,13.61-54.05,20.15-81.13a10.53,10.53,0,0,0-1.53-7.6c-33-46.57-50.54-98.39-48.14-155.38,4.47-106,55.58-182.77,150.94-229.1,41.48-20.15,86.06-26,131.92-21.65C541,131.88,635.9,219.08,655.35,329.46c13.83,78.46-4,149.31-54.32,211-40.1,49.1-92.23,79.05-154.89,89.84a251.24,251.24,0,0,1-135.7-13.63,14,14,0,0,0-11.14,0q-65.76,25.89-131.64,51.48C166.28,668.67,164.87,669.13,162.41,670Zm16.21-18.36c3-1.13,5.3-1.92,7.52-2.79,36.92-14.4,73.87-28.71,110.69-43.33,5.57-2.21,10.29-2.42,15.91-.09a223.68,223.68,0,0,0,58.44,15.18c61,7.57,117.4-5.26,168.37-39.37,93.27-62.41,132.09-177.76,95.6-284.28A244.86,244.86,0,0,0,325.44,144c-96.87,32.14-162.17,118.1-167.82,220-3.26,59,13.29,112.42,48.44,160,2.3,3.12,3.09,5.73,2.09,9.67C198.25,572.57,188.6,611.58,178.62,651.64Z"/><path class="cls-2" d="M223.27,595.59c7.08-25,13.75-48.94,20.72-72.79,1.09-3.72.49-6.14-1.94-9-35.33-42.18-51.86-91-49.65-145.81,3.89-96.86,75.89-179.46,171.33-197.22C478,149.46,586.59,222.87,609.81,337.05,629.12,432,578.44,530.74,489.94,569.71c-61.2,26.94-122.06,25.37-182.29-3.72-2.25-1.08-5.8-.87-8.23.07-23.92,9.15-47.74,18.59-71.58,27.93C226.66,594.45,225.44,594.83,223.27,595.59ZM337.4,263.9c-10.22-4.09-18,3.23-25.81,10.46-2,1.91-4,3.93-5.88,6-8.42,9.49-13.73,20.39-12.09,33.26,1.77,13.86,3.22,28,7.27,41.27,11.17,36.63,33.73,66.07,62,91.26,25.93,23.13,54.33,42.45,88.53,51.16A167.51,167.51,0,0,0,485.17,502c16.92.76,40.88-16.19,46.89-32a6.59,6.59,0,0,0,.38-2.72c-.48-7.47-.9-14.95-1.67-22.39-.16-1.5-1.43-3.65-2.72-4.16-18.94-7.48-37.95-14.77-57-22-4.76-1.81-9-1-12.88,2.73C452.4,427,446,432,440.51,437.85c-3.56,3.74-6.61,4.43-10.61,1.34-10.64-8.23-21.65-16-31.85-24.79-16-13.74-29.21-30-40.92-47.49-3.27-4.89-3.41-8.3,1.34-12.45,5-4.4,8.88-10.17,13.82-14.71,6.29-5.78,6.36-11.86,3.3-19.23-5.8-14-11.21-28.12-16.57-42.28C353.85,264.61,354,264.56,337.4,263.9Z"/><path class="cls-3" d="M178.65,655.21c10-40.06,19.62-79.07,29.52-118,1-3.94.22-6.55-2.08-9.66-35.16-47.55-51.7-101-48.44-160,5.65-101.94,70.94-187.89,167.82-220a244.86,244.86,0,0,1,309.71,153c36.49,106.52-2.33,221.86-95.6,284.27-51,34.11-107.4,46.94-168.37,39.37A224.06,224.06,0,0,1,312.77,609c-5.62-2.34-10.34-2.12-15.91.09C260,623.72,223.08,638,186.17,652.43,184,653.29,181.7,654.09,178.65,655.21Zm44.65-56.05c2.17-.75,3.38-1.13,4.57-1.59,23.84-9.35,47.66-18.79,71.58-27.94,2.43-.93,6-1.15,8.22-.06,60.24,29.09,121.1,30.66,182.3,3.71,88.5-39,139.18-137.73,119.87-232.66C586.62,226.44,478,153,363.76,174.3c-95.44,17.76-167.44,100.36-171.34,197.22-2.2,54.85,14.33,103.63,49.66,145.82,2.43,2.89,3,5.32,1.94,9C237.05,550.22,230.38,574.16,223.3,599.16Z"/><path class="cls-3" d="M337.43,267.47c16.56.67,16.45.71,21.61,14.35,5.37,14.15,10.78,28.29,16.58,42.27,3.06,7.37,3,13.45-3.3,19.23-4.94,4.54-8.78,10.31-13.82,14.72-4.75,4.14-4.61,7.55-1.35,12.44,11.72,17.52,25,33.76,40.93,47.49,10.2,8.76,21.21,16.56,31.85,24.8,4,3.09,7.05,2.39,10.6-1.35,5.53-5.81,11.9-10.83,17.69-16.42,3.84-3.71,8.11-4.54,12.87-2.73q28.56,10.86,57,22c1.29.51,2.56,2.65,2.72,4.15.77,7.44,1.19,14.92,1.67,22.4a6.63,6.63,0,0,1-.38,2.72c-6,15.77-30,32.72-46.89,32a168.41,168.41,0,0,1-33.79-4.6c-34.19-8.72-62.59-28-88.53-51.17-28.24-25.19-50.79-54.63-62-91.26-4.05-13.26-5.49-27.41-7.26-41.27-1.64-12.87,3.67-23.77,12.09-33.26,1.86-2.09,3.83-4.12,5.88-6C319.41,270.7,327.21,263.38,337.43,267.47Z"/><path class="cls-4" d="M773.65,399.5A428.65,428.65,0,0,1,748.24,544c-.94,3-2.21,5.77-3.31,8.67l-3.39,8.65-.85,2.17-1,2.12-1.91,4.24L734,578.3l-.95,2.13L732,582.52l-2.09,4.16L725.72,595c-.67,1.41-1.44,2.76-2.22,4.12l-2.29,4.07-4.59,8.17a380.6,380.6,0,0,1-44.38,60.85,351.07,351.07,0,0,1-196.42,111,357.67,357.67,0,0,1-76.32,6.17q-9.56-.48-19.09-1.06c-6.35-.59-12.68-1.35-19-2-1.58-.15-3.15-.45-4.72-.7l-4.71-.78-9.4-1.57c-.78-.14-1.57-.25-2.35-.4l-2.33-.51-4.65-1L324,779.32a379.11,379.11,0,0,1-71.38-25.14,415.16,415.16,0,0,1-121-86.74,421.26,421.26,0,0,1-46.75-57.67,411.19,411.19,0,0,1-35.72-65.13L45.54,536c-1.18-2.88-2.49-5.7-3.49-8.64l-3.18-8.77c-1-2.93-2.21-5.82-3.06-8.81L33,500.92l-1.39-4.46c-.23-.75-.49-1.48-.69-2.24L30.35,492l-2.35-9-1.19-4.53-.59-2.26-.49-2.29a402.85,402.85,0,0,1-10-74.34,385.8,385.8,0,0,1,4.44-75.44l.33-2.36.43-2.33.9-4.67,1.81-9.34.45-2.34c.16-.78.37-1.54.55-2.31l1.14-4.63,2.28-9.25c.7-3.11,1.73-6.11,2.62-9.17l2.77-9.13c.86-3.08,2-6,3.09-9l3.25-9,.82-2.25c.28-.74.61-1.47.91-2.21l1.84-4.41,3.7-8.83.93-2.21c.33-.72.68-1.44,1-2.16l2.08-4.31,4.17-8.62,1-2.16,1.15-2.1L59.76,207l4.59-8.42c.75-1.42,1.59-2.78,2.43-4.13l2.52-4.09,5-8.17A390.64,390.64,0,0,1,248.5,35a379.17,379.17,0,0,1,301.36,1.55A356.56,356.56,0,0,1,616.3,75.05c5.14,3.8,10.11,7.82,15.13,11.74,2.49,2,4.85,4.14,7.26,6.22l7.19,6.28c4.64,4.35,9.21,8.78,13.76,13.19l13,13.86a385,385,0,0,1,44.3,61l4.59,8.18,2.29,4.09c.78,1.35,1.54,2.71,2.22,4.12l4.2,8.36,2.1,4.17,1,2.08,1,2.14,3.82,8.51,1.9,4.25.95,2.12.85,2.17,3.39,8.66c1.1,2.9,2.37,5.72,3.3,8.68A423.74,423.74,0,0,1,773.65,399.5Zm-4.3,0a334.61,334.61,0,0,0-8.06-72,327.42,327.42,0,0,0-23.41-68.19l-.92-2c-.31-.68-.67-1.34-1-2l-2.05-4-4.13-8-1-2-1.13-1.94-2.25-3.88-4.51-7.74-1.14-1.93L718.48,224,716,220.21l-4.9-7.47c-.79-1.26-1.67-2.46-2.55-3.66l-2.64-3.61-5.26-7.18a362,362,0,0,0-48.24-51.72A390.37,390.37,0,0,0,533.89,75a369.51,369.51,0,0,0-66.12-18.61L459.3,55l-4.23-.7L453,54c-.71-.09-1.42-.16-2.13-.24l-8.52-1-4.26-.5c-1.42-.16-2.84-.36-4.27-.42-5.71-.34-11.41-.77-17.12-1.07l-17.15-.31q-8.58.3-17.14.52c-5.7.38-11.39.9-17.09,1.32-1.42.08-2.84.3-4.25.47l-4.25.54-8.49,1.08c-.71.09-1.42.16-2.13.27l-2.1.38-4.22.76-8.43,1.46a367.12,367.12,0,0,0-65.65,19.3,356.86,356.86,0,0,0-114.92,74.25A367.74,367.74,0,0,0,71.76,263.76a371.77,371.77,0,0,0-22.67,66,365.91,365.91,0,0,0-9.82,69.72,349.75,349.75,0,0,0,4.26,70.82l.32,2.21.42,2.19.86,4.37,1.75,8.75.44,2.19c.15.73.36,1.44.53,2.16l1.1,4.33,2.2,8.66c.67,2.9,1.68,5.71,2.54,8.56l2.66,8.54c.83,2.87,2,5.63,3,8.44l3.14,8.38A333.91,333.91,0,0,0,261.67,732.27a359.74,359.74,0,0,0,68.2,17.15l8.69,1.13,4.34.59,2.16.3c.72.08,1.45.13,2.18.19l8.71.74,4.35.37c1.45.11,2.9.27,4.36.29,5.82.21,11.62.51,17.42.66q8.73-.12,17.42-.14a398.07,398.07,0,0,0,135.07-27.94,402.76,402.76,0,0,0,118.28-72.76A366.21,366.21,0,0,0,701,600.94l5.26-7.2,2.64-3.61c.88-1.2,1.76-2.4,2.55-3.66l4.9-7.49,2.46-3.75,1.23-1.87,1.13-1.93,4.51-7.75,2.26-3.89,1.12-1.94,1-2,4.13-8,2-4c.33-.67.7-1.33,1-2l.92-2.06a325.58,325.58,0,0,0,23.33-68.27A331.29,331.29,0,0,0,769.35,399.5Z"/></svg>